<svg width="121" height="42" viewBox="0 0 121 42" fill="none" xmlns="http://www.w3.org/2000/svg">
<rect width="42" height="42" rx="3" fill="#0D907C"/>
<path d="M16.061 26.382L19.5976 13.65H21.5122L21.6341 16.3327L17.8537 29.4H15.8293L16.061 26.382ZM13.8293 13.65L16.7317 26.3387V29.4H14.5244L10.5 13.65H13.8293ZM25.3049 26.2846L28.1585 13.65H31.5L27.4756 29.4H25.2683L25.3049 26.2846ZM22.4268 13.65L25.9634 26.4252L26.1707 29.4H24.1463L20.378 16.3219L20.5244 13.65H22.4268Z" fill="#FDFDFD"/>
<path d="M55.0592 24.418C55.0592 24.1445 55.017 23.9004 54.9328 23.6855C54.855 23.4642 54.7092 23.2656 54.4953 23.0898C54.2879 22.9076 53.993 22.7318 53.6106 22.5625C53.2347 22.3867 52.7487 22.2044 52.1524 22.0156C51.4913 21.8073 50.8757 21.5729 50.3053 21.3125C49.735 21.0521 49.2327 20.7493 48.7985 20.4043C48.3707 20.0592 48.037 19.6621 47.7972 19.2129C47.5574 18.7572 47.4375 18.2298 47.4375 17.6309C47.4375 17.0449 47.5606 16.5111 47.8069 16.0293C48.0596 15.5475 48.4161 15.1341 48.8763 14.7891C49.3364 14.4375 49.8776 14.1673 50.4998 13.9785C51.1284 13.7897 51.8219 13.6953 52.5802 13.6953C53.6301 13.6953 54.5374 13.8874 55.3022 14.2715C56.0734 14.6556 56.6697 15.1764 57.091 15.834C57.5122 16.4915 57.7229 17.2305 57.7229 18.0508H55.0592C55.0592 17.6081 54.9652 17.2174 54.7772 16.8789C54.5958 16.5404 54.3171 16.2734 53.9412 16.0781C53.5718 15.8828 53.1051 15.7852 52.5413 15.7852C51.9969 15.7852 51.5432 15.8665 51.1803 16.0293C50.8238 16.1921 50.5548 16.4134 50.3734 16.6934C50.1984 16.9733 50.1109 17.2858 50.1109 17.6309C50.1109 17.8913 50.1725 18.1257 50.2956 18.334C50.4187 18.5358 50.6034 18.7279 50.8497 18.9102C51.096 19.0859 51.4006 19.252 51.7636 19.4082C52.133 19.5579 52.5607 19.7077 53.0468 19.8574C53.8245 20.0918 54.505 20.3522 55.0883 20.6387C55.6781 20.9251 56.1674 21.2507 56.5563 21.6152C56.9516 21.9798 57.2465 22.39 57.4409 22.8457C57.6418 23.3014 57.7423 23.819 57.7423 24.3984C57.7423 25.0104 57.6224 25.5573 57.3826 26.0391C57.1428 26.5208 56.7993 26.931 56.3521 27.2695C55.9049 27.6081 55.367 27.8652 54.7383 28.041C54.1162 28.2168 53.4195 28.3047 52.6482 28.3047C51.9612 28.3047 51.2807 28.2135 50.6067 28.0312C49.9391 27.8424 49.3332 27.5625 48.7888 27.1914C48.2444 26.8138 47.8101 26.3385 47.4861 25.7656C47.162 25.1862 47 24.5091 47 23.7344H49.6831C49.6831 24.1836 49.7544 24.5677 49.897 24.8867C50.0461 25.1992 50.2535 25.4564 50.5192 25.6582C50.7914 25.8535 51.109 25.9967 51.4719 26.0879C51.8348 26.179 52.2269 26.2246 52.6482 26.2246C53.1926 26.2246 53.6398 26.1497 53.9898 26C54.3462 25.8438 54.612 25.6289 54.787 25.3555C54.9684 25.082 55.0592 24.7695 55.0592 24.418Z" fill="#FDFDFD"/>
<path d="M69.1845 26V28.1094H61.6601V26H69.1845ZM62.4767 13.8906V28.1094H59.8033V13.8906H62.4767ZM68.2027 19.7598V21.8203H61.6601V19.7598H68.2027ZM69.1554 13.8906V16.0098H61.6601V13.8906H69.1554Z" fill="#FDFDFD"/>
<path d="M82.4156 13.8906V28.1094H79.7324L73.7148 18.2461V28.1094H71.0414V13.8906H73.7148L79.7519 23.7637V13.8906H82.4156Z" fill="#FDFDFD"/>
<path d="M89.3665 28.1094H86.3139L86.3333 26H89.3665C90.1895 26 90.8798 25.8177 91.4371 25.4531C91.9945 25.082 92.4158 24.5514 92.7009 23.8613C92.9861 23.1647 93.1287 22.3314 93.1287 21.3613V20.6289C93.1287 19.8802 93.0477 19.2194 92.8856 18.6465C92.7236 18.0736 92.4838 17.5918 92.1663 17.2012C91.8552 16.8105 91.4695 16.5143 91.0094 16.3125C90.5492 16.1107 90.021 16.0098 89.4248 16.0098H86.2556V13.8906H89.4248C90.371 13.8906 91.233 14.0501 92.0107 14.3691C92.7949 14.6882 93.4722 15.1471 94.0425 15.7461C94.6193 16.3385 95.06 17.0482 95.3646 17.875C95.6757 18.7018 95.8313 19.6263 95.8313 20.6484V21.3613C95.8313 22.377 95.6757 23.3014 95.3646 24.1348C95.06 24.9616 94.6193 25.6712 94.0425 26.2637C93.4722 26.8561 92.7917 27.3118 92.001 27.6309C91.2103 27.9499 90.3321 28.1094 89.3665 28.1094ZM87.811 13.8906V28.1094H85.1376V13.8906H87.811Z" fill="#FDFDFD"/>
<path d="M107.487 26V28.1094H99.9629V26H107.487ZM100.78 13.8906V28.1094H98.1061V13.8906H100.78ZM106.506 19.7598V21.8203H99.9629V19.7598H106.506ZM107.458 13.8906V16.0098H99.9629V13.8906H107.458Z" fill="#FDFDFD"/>
<path d="M109.344 13.8906H114.487C115.563 13.8906 116.486 14.0534 117.258 14.3789C118.029 14.7044 118.622 15.1862 119.037 15.8242C119.451 16.4622 119.659 17.2467 119.659 18.1777C119.659 18.9134 119.529 19.5514 119.27 20.0918C119.011 20.6322 118.644 21.0846 118.171 21.4492C117.705 21.8138 117.154 22.1003 116.519 22.3086L115.683 22.7383H111.143L111.123 20.6191H114.516C115.067 20.6191 115.524 20.5215 115.887 20.3262C116.25 20.1309 116.522 19.8607 116.703 19.5156C116.891 19.1706 116.985 18.7767 116.985 18.334C116.985 17.8587 116.895 17.4486 116.713 17.1035C116.532 16.752 116.256 16.4818 115.887 16.293C115.517 16.1042 115.051 16.0098 114.487 16.0098H112.018V28.1094H109.344V13.8906ZM117.335 28.1094L114.059 21.7422L116.888 21.7324L120.203 27.9727V28.1094H117.335Z" fill="#FDFDFD"/>
</svg>
