<svg width="26" height="26" viewBox="0 0 26 26" fill="none" xmlns="http://www.w3.org/2000/svg">
<path d="M4.39757 18.0988C3.15553 16.0033 2.72108 13.5265 3.17578 11.1334C3.63048 8.74025 4.94306 6.59539 6.8671 5.10145C8.79113 3.60751 11.1943 2.86723 13.6255 3.01959C16.0566 3.17195 18.3486 4.20647 20.0711 5.92894C21.7935 7.6514 22.828 9.94336 22.9804 12.3745C23.1328 14.8057 22.3925 17.2089 20.8986 19.1329C19.4046 21.0569 17.2598 22.3695 14.8666 22.8242C12.4735 23.2789 9.99671 22.8445 7.90121 21.6024V21.6024L4.43928 22.5826C4.29744 22.6241 4.14706 22.6267 4.00389 22.59C3.86072 22.5534 3.73003 22.479 3.62554 22.3745C3.52104 22.27 3.44658 22.1393 3.40996 21.9961C3.37333 21.8529 3.3759 21.7026 3.41738 21.5607L4.39757 18.0988Z" stroke="#FDFDFD" stroke-width="1.4" stroke-linecap="round" stroke-linejoin="round"/>
<path d="M9.67389 11.3208H16.3475" stroke="#FDFDFD" stroke-width="1.4" stroke-linecap="round" stroke-linejoin="round"/>
<path d="M9.67389 14.6575H16.3475" stroke="#FDFDFD" stroke-width="1.4" stroke-linecap="round" stroke-linejoin="round"/>
</svg>
