<svg width="26" height="26" viewBox="0 0 26 26" fill="none" xmlns="http://www.w3.org/2000/svg">
<path d="M9.85714 12.2C14.1965 12.2 17.7143 10.5882 17.7143 8.6C17.7143 6.61177 14.1965 5 9.85714 5C5.51776 5 2 6.61177 2 8.6C2 10.5882 5.51776 12.2 9.85714 12.2Z" stroke="#FDFDFD" stroke-width="1.4" stroke-linecap="round" stroke-linejoin="round"/>
<path d="M2 8.60004V12.6C2 14.59 5.51607 16.2 9.85714 16.2C14.1982 16.2 17.7143 14.59 17.7143 12.6V8.60004" stroke="#FDFDFD" stroke-width="1.4" stroke-linecap="round" stroke-linejoin="round"/>
<path d="M6.71436 11.8999V15.8999" stroke="#FDFDFD" stroke-width="1.4" stroke-linecap="round" stroke-linejoin="round"/>
<path d="M17.7143 9.87012C21.2991 10.2101 24 11.6601 24 13.4001C24 15.3901 20.4839 17.0001 16.1429 17.0001C14.2179 17.0001 12.45 16.6801 11.0848 16.1601" stroke="#FDFDFD" stroke-width="1.4" stroke-linecap="round" stroke-linejoin="round"/>
<path d="M8.28564 16.1299V17.3999C8.28564 19.3899 11.8017 20.9999 16.1428 20.9999C20.4839 20.9999 23.9999 19.3899 23.9999 17.3999V13.3999" stroke="#FDFDFD" stroke-width="1.4" stroke-linecap="round" stroke-linejoin="round"/>
<path d="M19.2858 16.7002V20.7002" stroke="#FDFDFD" stroke-width="1.4" stroke-linecap="round" stroke-linejoin="round"/>
<path d="M12.9999 11.8999V20.6999" stroke="#FDFDFD" stroke-width="1.4" stroke-linecap="round" stroke-linejoin="round"/>
</svg>
